<svg xmlns="http://www.w3.org/2000/svg" width="256" height="256" viewBox="0 0 100 100"><rect width="100" height="100" rx="20" fill="#000000"></rect><path fill="#ffd700" d="M45.84 74.11Q43.31 74.11 42.55 71.73L42.55 71.73L37.51 57.17L23.23 60.33L18.68 71.81Q18.25 72.78 17.45 73.42Q16.64 74.05 15.45 74.05L15.45 74.05Q14.05 74.05 13.00 73.06Q11.95 72.08 11.95 70.75L11.95 70.75Q11.95 69.84 12.44 68.66L12.44 68.66L15.24 61.66Q14.82 61.52 14.61 61.38L14.61 61.38Q12.79 60.46 12.79 58.30L12.79 58.30Q12.79 57.03 13.53 56.13Q14.26 55.22 15.45 54.94L15.45 54.94L18.05 54.38L28.41 28.05Q28.82 27.00 29.73 26.44Q30.64 25.88 31.70 25.88L31.70 25.88Q32.81 25.88 33.66 26.44Q34.50 27.00 34.92 28.19L34.92 28.19L48.84 68.58Q48.92 68.72 49.13 69.39Q49.34 70.06 49.34 70.75L49.34 70.75Q49.34 72.08 48.36 73.10Q47.38 74.11 45.84 74.11L45.84 74.11ZM26.16 52.63L35.20 50.66L31.42 39.39L26.16 52.63ZM84.62 74.11Q83.42 74.11 82.52 73.42L82.52 73.42L62.00 57.38L62.00 70.61Q62.00 71.94 60.99 73.00Q59.97 74.05 58.57 74.05L58.57 74.05Q57.17 74.05 56.16 73.03Q55.14 72.02 55.14 70.61L55.14 70.61L55.14 29.80Q55.14 28.33 56.16 27.35Q57.17 26.37 58.57 26.37L58.57 26.37Q59.97 26.37 60.99 27.35Q62.00 28.33 62.00 29.80L62.00 29.80L62.00 43.52L81.11 27.14Q82.09 26.30 83.35 26.30L83.35 26.30Q84.69 26.30 85.70 27.39Q86.72 28.47 86.72 29.80L86.72 29.80Q86.72 31.34 85.53 32.39L85.53 32.39L64.38 50.52L86.72 67.95Q88.05 69.00 88.05 70.69L88.05 70.69Q88.05 72.16 87.03 73.14Q86.02 74.11 84.62 74.11L84.62 74.11Z"></path></svg>